<svg xmlns="http://www.w3.org/2000/svg" viewBox="0 0 13.449 14.365"><g transform="translate(-1.498)"><g transform="translate(1.498)"><path d="M14.336,5.78A6.043,6.043,0,0,0,8.261,0H8.185A6.043,6.043,0,0,0,2.109,5.78L1.5,12.556H6.119a2.128,2.128,0,0,0,4.207,0h4.621ZM2.718,5.841l0-.03V5.78A5.462,5.462,0,0,1,8.185.612h.057A5.479,5.479,0,0,1,13.725,5.78v.031l0,.03.406,4.551H2.312Zm5.505,7.94a1.529,1.529,0,0,1-1.5-1.225H9.72A1.529,1.529,0,0,1,8.223,13.781Zm-6.05-1.838L2.257,11H14.188l.084.94Z" transform="translate(-1.498)"/></g></g></svg>