<svg xmlns="http://www.w3.org/2000/svg" viewBox="0 0 35.298 28.09"><defs><style>.a{fill:#7FBCBE;}</style></defs><g transform="translate(0.001 -46.994)"><g transform="translate(-0.001 46.994)"><path class="a" d="M78.309,120.939,65.72,131.317a.3.3,0,0,1-.011.066.3.3,0,0,0-.011.065v10.509a1.422,1.422,0,0,0,1.4,1.4h8.407v-8.407h5.605v8.408h8.407a1.423,1.423,0,0,0,1.4-1.4V131.448a.308.308,0,0,0-.022-.131Z" transform="translate(-60.66 -115.269)"/><path class="a" d="M35.054,60.678l-4.794-3.985V47.76a.675.675,0,0,0-.7-.7h-4.2a.674.674,0,0,0-.7.7V52.03l-5.342-4.466a2.716,2.716,0,0,0-3.327,0L.243,60.678A.636.636,0,0,0,0,61.148a.709.709,0,0,0,.153.515l1.357,1.62a.747.747,0,0,0,.46.241.814.814,0,0,0,.526-.153l15.15-12.633L32.8,63.371a.675.675,0,0,0,.46.153h.066a.748.748,0,0,0,.46-.241l1.358-1.62a.709.709,0,0,0,.153-.515A.638.638,0,0,0,35.054,60.678Z" transform="translate(0.001 -46.994)"/></g></g></svg>