<svg xmlns="http://www.w3.org/2000/svg" viewBox="0 0 32.165 31.023"><defs><style>.a{fill:none;stroke:#f2f6f3;stroke-miterlimit:10;}</style></defs><g transform="translate(-4.5 -4.486)"><g transform="translate(5 4.998)"><path class="a" d="M94.1,18.026h6.741L97.213,9.112l-.684-1.674a4.169,4.169,0,0,0-5.243-2.2l-.451.158a4.215,4.215,0,0,0-.522.228,3.786,3.786,0,0,0-1.463,1.841l-.633,1.736L85,18.026h9.1Z" transform="translate(-77.519 -4.998)"/><path class="a" d="M44.283,232.548a3.772,3.772,0,0,0,2.366,4.782l.425.144a3.774,3.774,0,0,0,4.782-2.367l1.794-5.308H45.211Z" transform="translate(-40.428 -207.674)"/><path class="a" d="M191.548,229.8H183l1.993,5.276a3.772,3.772,0,0,0,4.862,2.2l.418-.158a3.772,3.772,0,0,0,2.2-4.862Z" transform="translate(-165.207 -207.674)"/><path class="a" d="M32.039,144.5H9.126a3.977,3.977,0,1,0,0,7.948H32.039a3.977,3.977,0,1,0,0-7.948Z" transform="translate(-5 -130.804)"/></g></g></svg>